<svg width="252" height="199" viewBox="0 0 252 199" fill="none" xmlns="http://www.w3.org/2000/svg">
<g clip-path="url(#clip0_751_39287)">
<path d="M235.522 89.1482L239.828 86.4832C235.838 82.457 238.565 80.0786 242.24 79.0327C243.603 77.5999 242.857 76.1671 243.216 74.6483L247.522 65.2062C246.468 63.2764 245.077 61.5492 243.417 60.1055C243.273 58.773 243.144 57.4262 243 56.0937C244.752 54.9045 246.158 52.5117 247.622 51.6377C246.632 50.0617 243.847 49.7321 242.024 48.1847C241.68 47.8838 233.656 36.0347 233.412 35.1177C232.393 30.8193 236.283 30.3035 237.646 27.4953C239.197 24.4577 239.082 21.0047 241.106 17.9386C243.431 14.4282 248.828 12.3364 252.015 8.41052L251.584 7.92336L248.197 7.45053C245.699 8.09529 245.168 10.1585 242.857 11.3907L235.838 15.6891H234.287L232.953 17.4801C230.855 19.2364 228.545 20.7237 226.077 21.9074C225.589 21.9074 224.972 21.3629 224.254 21.7928C223.536 22.2226 223.005 23.9563 221.814 24.5724C219.79 25.6326 217.508 25.7329 215.857 27.0081C214.421 25.0595 209.168 22.4662 210.962 19.1278C211.302 19.2535 211.664 19.3058 212.025 19.2811C212.387 19.2564 212.739 19.1553 213.058 18.9845C212.699 18.1965 211.622 17.4227 211.852 16.5631C212.082 15.7034 216.388 14.242 217.493 12.9525C219.374 10.7173 221.656 7.22131 225.101 5.50196C227.642 4.22678 231.431 2.92294 233.211 0.257949L233.053 0.100342C229.838 0.945687 213.273 5.12943 212.957 6.23268C211.895 6.23268 210.388 6.47625 210.087 5.28703C208.063 5.41598 206.857 6.36163 204.488 5.91746L205.206 6.44759C200.225 8.53946 197.756 12.0498 191.469 11.2045C191.01 10.3734 191.197 10.703 191.154 10.0296C190.264 9.92926 190.493 10.1728 189.862 9.42779C188.326 9.42779 186.991 10.3304 185.555 10.3878C182.24 10.531 179.082 9.34183 175.823 9.48511L168.847 10.7889C167.785 10.3878 168.273 9.35615 167.125 9.35615C165.976 9.35615 165.933 10.5167 165.488 11.1185C162.776 9.54242 160.838 11.0182 158.11 8.68273C152.828 10.8749 148.063 12.3937 142.766 11.9495C140.311 11.7489 136.938 10.3018 134.584 10.5167C131.01 10.8749 125.398 13.1387 122.297 8.68273C119.843 11.2474 112.665 14.0127 109.192 11.405C105.933 12.7519 103.45 16.1046 101.24 17.1362C99.0291 18.1678 95.5841 19.8012 93.5028 20.8901C92.1535 21.5922 91.6081 24.1282 89.7133 24.9019C86.3401 26.2487 82.12 25.4607 78.8042 26.5066C75.4884 27.5526 73.9813 29.4295 71.1105 29.5012L52.8808 45.8779C48.3736 51.0646 36.0435 58.3862 30.388 61.7532L23.053 68.9172L10.2349 79.878C9.11109 81.5135 8.22209 83.2979 7.5937 85.1793L4.50757 89.1338C3.96212 90.3804 4.37839 92.1713 3.81858 93.5612L0.201354 98.5759C-1.00439 102.273 3.3449 105.955 6.28748 108.333C6.54586 109.551 6.20136 110.941 6.41667 112.015C6.50279 112.431 11.5841 120.426 12.0722 121.286C13.0913 122.418 14.1104 123.549 15.1439 124.667C15.7037 126.3 16.2779 127.948 16.8521 129.581C18.9478 133.507 22.5937 136.029 25.0052 138.336L31.3066 145.844L36.2157 149.641L44.4549 160.673C50.8478 166.42 57.7465 171.579 65.0674 176.09C66.431 176.949 68.6272 177.523 70.2061 178.483C75.3305 181.721 80.3401 189.945 84.9621 191.263C88.4789 192.295 93.9334 187.208 97.1057 185.016L98.2683 186.019L95.1535 189.415C96.0722 189.601 95.6416 189.415 96.4454 190.303L100.005 187.437C101.737 188.54 103.604 189.417 105.56 190.045C104.53 192.062 103.226 193.928 101.685 195.59L101.828 195.748C103.163 196.149 104.139 195.748 105.517 196.536C107.972 195.948 111.804 191.349 113.713 190.031C114.813 190.895 115.714 191.984 116.354 193.226C114.919 195.06 113.584 196.249 113.484 198.183C115.724 198.009 117.976 198.272 120.115 198.957C122.598 198.384 131.211 191.005 132.546 188.655C145.694 186.95 158.11 174.327 166.996 164.957L178.206 156.36C180.375 154.509 182.244 152.334 183.747 149.913C184.479 148.824 185.469 149.426 186.244 148.838C186.402 146.23 188.685 145.127 189.56 143.494C189.862 142.448 190.149 141.402 190.45 140.356C191.446 139.014 192.757 137.936 194.268 137.218C196.125 135.308 197.981 133.44 199.838 131.616L202.307 129.968C202.508 128.922 202.709 127.862 202.895 126.802C204.332 124.777 206.258 123.146 208.493 122.059C208.713 119.684 209.053 117.322 209.512 114.981C210.173 112.503 217.637 109.365 220.091 108.09C222.546 106.814 220.78 102.516 224.211 101.169C229.091 99.2063 236.469 95.653 235.522 89.1482ZM109.866 157.449L109.436 156.962C109.436 156.833 109.522 156.69 109.551 156.561L110.426 157.249L109.866 157.449ZM174.862 50.2766L174.46 50.6491C174.259 50.3339 174.058 50.033 173.871 49.7178C173.955 49.6292 174.046 49.5478 174.144 49.4743C174.46 49.7322 174.675 50.0044 174.919 50.2766H174.862Z" fill="#FF8B00"/>
</g>
<defs>
<clipPath id="clip0_751_39287">
<rect width="252" height="199" fill="white"/>
</clipPath>
</defs>
</svg>
