<svg width="260" height="259" viewBox="0 0 260 259" fill="none" xmlns="http://www.w3.org/2000/svg">
<path d="M224.054 101.268C221.379 87.7098 223.183 81.9101 225.557 70.8078L216.824 71.787L210.662 64.9178C193.767 36.8834 229.285 43.361 236.35 30.5264C237.853 27.0315 235.643 24.3199 234.306 22.1658C227.932 11.892 215.652 19.4843 207.069 21.6837C202.891 28.7337 208.166 37.1546 202.951 44.777C196.728 45.9219 193.737 48.061 189.077 49.1908L184.973 44.2799C174.587 44.6716 174.452 50.17 166.47 50.6671C157.797 43.4514 156.73 33.0571 152.085 21.6837L151.048 20.1773C147.756 21.1866 147.486 22.5424 142.826 22.6327C138.317 18.5654 138.572 14.7542 138.197 7.40289C136.844 6.40866 135.461 5.42949 134.093 4.39007C123.661 5.42949 119.062 15.1007 102.242 12.2535C99.7319 7.90001 99.3712 2.73301 94.0051 0.955444C93.1633 1.6032 92.3065 2.26603 91.4347 2.91379C90.7583 6.84553 90.0669 10.7773 89.3905 14.709C87.7672 17.1193 66.438 4.40514 64.1082 6.13751C58.7571 10.1446 71.6237 32.2888 62.1541 34.8497C57.3893 36.1453 51.7075 26.2933 48.7914 23.0545H46.2211C43.1543 26.2158 39.484 28.7262 35.4288 30.436C34.6622 34.3225 36.4659 35.8289 39.5323 37.3052V38.8116C34.4969 45.1536 33.0839 52.7008 28.755 60.4287L14.3551 77.6319C8.85375 76.4418 7.75647 72.3896 3.05173 70.2655L1.00749 71.2447C-0.856366 83.8835 3.71309 90.0448 9.74057 98.7518C9.5405 101.036 8.46259 103.154 6.73435 104.657C6.76365 105.687 7.0059 106.699 7.44575 107.63C7.8856 108.561 8.51346 109.39 9.28964 110.065L4.16404 119.887C8.20741 123.788 10.8078 128.805 13.4082 134.137C13.4082 139.997 11.2136 141.067 7.2454 142.98C7.6813 145.466 9.47002 145.903 9.81574 147.394C10.2216 149.187 8.31261 152.109 8.79361 154.76C13.3029 157.427 16.6399 154.76 20.6081 152.802C28.1236 158.044 40.389 160.906 43.1548 170.487C40.9151 173.108 37.2626 173.334 32.8735 173.922C31.656 175.594 31.1449 175.519 30.8142 178.351C34.9872 181.45 40.0211 183.167 45.214 183.262C48.2202 187.178 51.7977 196.669 49.8286 201.941C50.009 202.258 50.1743 202.589 50.3396 202.905C53.9471 201.78 57.5446 200.636 61.132 199.471C69.0083 205.647 72.6909 211.311 84.776 209.79C88.0527 212.2 91.9759 213.586 95.5683 216.177L99.1608 223.061C101.911 226.571 113.981 234.465 118.701 235.338H119.212C121.091 232.069 119.979 228.273 120.715 224.537L124.819 222.564C130.531 232.326 131.944 242.765 131.508 257.453L133.011 258.959H134.514C137.28 254.545 136.228 244.076 135.551 238.321C136.393 237.658 137.265 237.01 138.106 236.363C142.616 237.764 146.434 237.553 151.995 237.342C155.993 243.835 151.289 246.109 149.425 251.593L150.447 253.099C153.859 252.783 154.115 252.044 156.099 250.659C157.346 243.744 157.512 239.285 160.728 234.932C182.629 230.699 188.656 228.303 186.927 205.948L190.009 203.493L196.698 202.981C205.235 211.642 211.654 215.544 224.445 220.681L225.948 222.187L226.459 221.69V220.711C220.788 214.922 213.96 210.399 206.423 207.44C205.235 205.558 204.483 203.434 204.223 201.223C203.963 199.013 204.201 196.772 204.92 194.665C209.7 191.652 219.305 194.093 222.386 188.775C223.889 184.723 219.545 182.087 217.771 179.435C219.743 175.986 222.577 173.11 225.993 171.09C233.704 171.858 241.295 178.034 247.563 174.524L249.607 172.506L238.815 165.124C229.36 152.727 237.116 141.534 243.956 131.727C243.264 126.108 239.777 126.033 238.815 120.911C241.746 117.205 252.343 113.274 257.318 112.069L259.378 109.613L255.785 107.158C243.069 102.955 235.012 115.262 224.054 101.268Z" fill="#FFDC00"/>
</svg>
