<svg width="177" height="54" viewBox="0 0 177 54" fill="none" xmlns="http://www.w3.org/2000/svg">
<path d="M53.593 33.7463C53.6483 35.3541 53.0396 36.2426 51.4871 36.2979L49.7686 36.5192L50.8784 45.2193C50.8856 45.3403 50.8679 45.4615 50.8264 45.5754C50.785 45.6893 50.7207 45.7935 50.6374 45.8816C50.5542 45.9697 50.4538 46.0399 50.3425 46.0878C50.2312 46.1357 50.1112 46.1602 49.99 46.16H44.4564C44.2458 46.1584 44.0435 46.078 43.8893 45.9346C43.735 45.7912 43.6401 45.5952 43.6232 45.3853L42.7932 37.3923L37.527 38.0594L36.2543 45.7051C36.2255 45.9047 36.1257 46.0873 35.9733 46.2194C35.8209 46.3515 35.626 46.4243 35.4242 46.4244H30.1519C30.0274 46.4269 29.904 46.4014 29.7907 46.3498C29.6774 46.2981 29.5772 46.2216 29.4975 46.1259C29.4178 46.0303 29.3606 45.9179 29.3302 45.7972C29.2998 45.6764 29.297 45.5504 29.3219 45.4284L30.5946 38.9448L28.6548 39.1661C27.9907 39.2768 27.7141 38.9448 27.8801 38.3914L28.0461 37.669C28.3938 36.5496 29.0237 35.5386 29.8753 34.7331L30.0966 34.5117C30.5355 34.166 31.0459 33.9224 31.5907 33.7985L35.6364 13.1274C35.6878 12.8557 35.8132 12.6035 35.9987 12.3985C36.1842 12.1935 36.4226 12.0436 36.6878 11.9653L45.2772 8.91569C45.3965 8.86063 45.5272 8.83488 45.6585 8.84063C45.7898 8.84639 45.9178 8.88346 46.0318 8.94875C46.1458 9.01404 46.2426 9.10565 46.314 9.21594C46.3854 9.32624 46.4294 9.45201 46.4423 9.58277L48.9355 29.6422L51.3734 29.0858C52.4801 28.8644 53.4792 29.4761 53.4792 30.8596L53.593 33.7463ZM36.4142 25.1046C36.3588 25.2153 36.0821 26.2113 35.9715 26.5434C35.4734 28.5385 34.917 31.3084 34.6403 32.8056C34.585 33.0269 34.751 33.1929 35.0277 33.0823L35.5841 32.9162C35.728 32.7847 35.8251 32.6099 35.8608 32.4182L36.5802 26.0453C36.5802 25.8793 36.6908 24.4928 36.4142 25.1046ZM42.123 31.2531L40.7919 18.3997L38.52 32.1415L42.123 31.2531ZM50.6509 25.99L49.3782 16.3492C49.3299 16.1039 49.3397 15.8506 49.407 15.6098C49.4743 15.3691 49.5971 15.1474 49.7656 14.9627L51.4287 13.2995C52.0436 12.7462 52.5908 13.1335 52.5908 13.6869C52.9444 17.5947 52.9629 21.5256 52.6461 25.4366C52.5908 26.2113 52.2034 26.3773 51.8714 26.4327L51.4287 26.488C51.3447 26.5122 51.2566 26.5182 51.1701 26.5056C51.0836 26.493 51.0008 26.4621 50.9272 26.4149C50.8536 26.3678 50.7909 26.3055 50.7432 26.2323C50.6956 26.159 50.6641 26.0764 50.6509 25.99Z" fill="#FE3C00"/>
<path d="M80.3018 43.9442C80.3018 45.7887 79.4164 46.0961 78.1498 46.0961L59.7044 46.9293C59.6619 46.9252 59.6225 46.9055 59.5937 46.8739L59.2033 46.9293C58.974 46.9261 58.7476 46.8776 58.5371 46.7866C58.3266 46.6956 58.1362 46.5639 57.9768 46.399C57.8174 46.2342 57.6921 46.0394 57.6082 45.826C57.5243 45.6126 57.4834 45.3847 57.4879 45.1554V10.0323C57.4895 9.57751 57.6707 9.14182 57.9919 8.81998C58.3132 8.49813 58.7486 8.3162 59.2033 8.31377L64.2481 7.8711C64.4834 7.87061 64.7163 7.91844 64.9324 8.01164C65.1484 8.10484 65.343 8.24143 65.5042 8.41292C65.6653 8.58441 65.7895 8.78714 65.869 9.00859C65.9486 9.23003 65.9818 9.46544 65.9666 9.70025L64.6754 38.4106C64.6754 39.4066 65.9051 39.1853 65.9051 39.1853C65.9051 39.1853 73.5508 38.4106 75.9333 38.0785C76.9324 37.9648 77.4858 36.8488 78.0853 36.6367C78.9153 36.3047 80.1911 36.8581 80.1911 38.4813L80.3018 43.9442ZM68.1124 26.544C67.722 26.544 67.4453 26.3226 67.4453 25.7139C67.4453 21.8896 67.888 19.5071 68.0018 14.9541C68.0571 14.1794 68.3891 13.8443 68.6658 13.789H68.8872C69.2745 13.7337 69.8832 13.9028 69.9385 15.0648L70.4396 23.3222C70.4396 23.4329 70.495 24.1522 70.495 24.2629C70.4716 24.677 70.3352 25.0769 70.1005 25.4189C69.8658 25.7609 69.5418 26.032 69.1638 26.2028C68.8421 26.391 68.4834 26.5074 68.1124 26.544V26.544Z" fill="#FE3C00"/>
<path d="M106.295 33.746C106.35 35.3538 105.741 36.2423 104.189 36.2976L102.47 36.5189L103.58 45.219C103.587 45.34 103.57 45.4612 103.528 45.5751C103.487 45.689 103.422 45.7932 103.339 45.8813C103.256 45.9694 103.155 46.0396 103.044 46.0875C102.933 46.1354 102.813 46.1599 102.692 46.1597H97.158C96.9477 46.1574 96.7457 46.0767 96.5917 45.9335C96.4376 45.7902 96.3425 45.5947 96.3249 45.385L95.4949 37.392L90.2318 38.0591L88.956 45.7048C88.9271 45.9044 88.8274 46.087 88.675 46.2191C88.5225 46.3512 88.3276 46.424 88.1259 46.4241H82.8505C82.726 46.4266 82.6026 46.4011 82.4893 46.3495C82.376 46.2978 82.2758 46.2213 82.1961 46.1256C82.1163 46.03 82.0592 45.9176 82.0288 45.7969C81.9984 45.6761 81.9955 45.5501 82.0205 45.4281L83.2932 38.9445L81.3564 39.1659C80.6893 39.2765 80.4126 38.9445 80.5787 38.3911L80.7447 37.6687C81.0924 36.5493 81.7223 35.5383 82.5738 34.7328L82.7952 34.5115C83.2344 34.1631 83.7459 33.9174 84.2923 33.7921L88.338 13.1209C88.3913 12.8519 88.5171 12.6025 88.7019 12.3999C88.8866 12.1972 89.1233 12.049 89.3863 11.9712L97.9758 8.92151C98.0951 8.86645 98.2258 8.84074 98.3571 8.84649C98.4883 8.85225 98.6163 8.88932 98.7304 8.95461C98.8444 9.0199 98.9412 9.11151 99.0126 9.2218C99.084 9.3321 99.128 9.45787 99.1409 9.58863L101.634 29.648L104.072 29.0916C105.179 28.8702 106.178 29.482 106.178 30.8654L106.295 33.746ZM89.1158 25.1043C89.0605 25.215 88.7838 26.211 88.6731 26.5431C88.1751 28.5382 87.6187 31.3081 87.342 32.8053C87.2866 33.0266 87.4526 33.1926 87.7293 33.082L88.2858 32.9159C88.4296 32.7844 88.5267 32.6096 88.5625 32.4179L89.2818 26.045C89.2787 25.879 89.3863 24.4925 89.1127 25.1043H89.1158ZM94.8247 31.2528L93.4935 18.3994L91.2217 32.1412L94.8247 31.2528ZM103.359 25.9897L102.083 16.3489C102.035 16.1036 102.044 15.8503 102.112 15.6096C102.179 15.3688 102.302 15.1471 102.47 14.9624L104.133 13.2992C104.748 12.7459 105.296 13.1332 105.296 13.6866C105.652 17.5943 105.671 21.5255 105.351 25.4363C105.296 26.211 104.908 26.3771 104.576 26.4324L104.133 26.4877C104.049 26.5119 103.961 26.5179 103.875 26.5053C103.788 26.4927 103.706 26.4618 103.632 26.4146C103.558 26.3675 103.496 26.3052 103.448 26.232C103.4 26.1587 103.369 26.0761 103.356 25.9897H103.359Z" fill="#FE3C00"/>
<path d="M131.728 44.1646C131.783 45.8831 130.895 46.1597 129.622 46.1597L111.223 46.4364L109.784 46.4918C108.84 46.4918 108.342 45.7171 108.785 44.7763L120.365 15.2391C117.872 15.3498 114.438 15.5711 112.987 15.7371C111.991 15.7924 111.435 16.7916 110.835 17.0129C110.005 17.2896 108.729 16.7362 108.729 15.2391L108.619 10.142C108.619 8.42352 109.452 8.14682 110.725 8.20215L129.899 8.03613H130.009C131.005 8.03613 131.451 8.86618 130.95 9.80997L118.038 39.3442C118.185 39.3764 118.337 39.3764 118.484 39.3442C118.484 39.3442 124.968 38.7908 127.35 38.6248C128.346 38.5141 128.955 37.515 129.567 37.2937C130.397 37.017 131.672 37.515 131.672 39.0121L131.728 44.1646ZM127.903 35.8641C128.069 36.1992 127.848 36.6419 127.239 36.7526C127.239 36.7526 124.857 37.0293 122.139 37.2506C121.524 37.306 121.254 36.8079 121.42 36.4206C121.752 35.4215 122.65 33.706 124.577 33.5923C126.462 33.414 127.461 34.9111 127.903 35.8519V35.8641Z" fill="#FE3C00"/>
<path d="M156.497 44.1646C156.552 45.8831 155.667 46.1597 154.391 46.1597L135.995 46.4364L134.553 46.4918C133.612 46.4918 133.111 45.7171 133.557 44.7763L145.138 15.2391C142.644 15.3498 139.207 15.5711 137.759 15.7371C136.76 15.7924 136.222 16.7916 135.608 17.0129C134.774 17.2896 133.502 16.7362 133.502 15.2391L133.391 10.142C133.391 8.42352 134.221 8.14682 135.494 8.20215L154.668 8.03613H154.778C155.778 8.03613 156.22 8.86618 155.722 9.80997L142.81 39.3442C142.956 39.3764 143.107 39.3764 143.253 39.3442C143.253 39.3442 149.737 38.7908 152.119 38.6248C153.118 38.5141 153.727 37.515 154.336 37.2937C155.166 37.017 156.442 37.515 156.442 39.0121L156.497 44.1646ZM152.673 35.8641C152.839 36.1992 152.617 36.6419 152.009 36.7526C152.009 36.7526 149.626 37.0293 146.911 37.2506C146.297 37.306 146.023 36.8079 146.189 36.4206C146.524 35.4215 147.419 33.706 149.349 33.5923C151.234 33.414 152.23 34.9111 152.673 35.8519V35.8641Z" fill="#FE3C00"/>
<path fill-rule="evenodd" clip-rule="evenodd" d="M21.1936 36.4698C8.70295 29.6419 12.7025 26.6691 9.18253 23.0292C6.2743 20.0226 1.76747 20.7512 0.356397 25.1812C-1.05468 29.6112 1.94885 32.9836 5.42274 34.862C8.89662 36.7403 14.0675 37.8655 21.1936 36.4698Z" fill="#FE3C00"/>
<path fill-rule="evenodd" clip-rule="evenodd" d="M18.891 50.8727C19.8317 49.643 20.4804 48.5424 21.6578 47.7985C22.1594 47.4881 22.7138 47.2723 23.2933 47.1621C23.4962 47.119 11.8664 40.5894 10.6889 48.3918C10.4276 51.0418 12.4812 53.455 15.2419 53.2368C16.7237 53.123 18.0271 52.0071 18.8818 50.8696L18.891 50.8727ZM15.4325 46.3659C15.1084 46.597 14.8445 46.9024 14.6626 47.2565C14.4808 47.6105 14.3864 48.003 14.3872 48.401C14.5348 49.5661 13.6279 49.563 13.1114 49.231C12.595 48.899 12.595 48.1797 12.7671 47.6355C13.0315 46.787 13.7416 46.2644 15.4325 46.3659V46.3659Z" fill="#FE3C00"/>
<path fill-rule="evenodd" clip-rule="evenodd" d="M157.155 15.2579C168.837 8.42998 165.108 5.4572 168.403 1.81731C171.127 -1.1893 175.348 -0.460701 176.667 3.96927C177.986 8.39925 175.179 11.7717 171.923 13.65C168.668 15.5284 163.82 16.6536 157.155 15.2579Z" fill="#FE3C00"/>
<path fill-rule="evenodd" clip-rule="evenodd" d="M159.31 29.6608C158.431 28.4311 157.825 27.3305 156.718 26.5865C156.251 26.2777 155.73 26.0616 155.181 25.9502C154.99 25.9071 165.879 19.3774 166.977 27.1799C167.223 29.8298 165.298 32.2431 162.716 32.0249C161.326 31.9111 160.106 30.7952 159.304 29.6577L159.31 29.6608ZM162.553 25.1539C162.861 25.3961 163.109 25.7053 163.279 26.058C163.449 26.4107 163.536 26.7976 163.534 27.1891C163.395 28.3542 164.244 28.3511 164.727 28.0191C165.209 27.6871 165.212 26.9677 165.049 26.4236C164.797 25.5751 164.133 25.0525 162.553 25.1539Z" fill="#FE3C00"/>
</svg>
